# xmcd
#
# Track frame offsets:
#	150
#	11545
#	29388
#	47277
#	62964
#	76148
#	91931
#	104541
#	121496
#	139176
#	154356
#	166447
#	178612
#	202921
#	222085
#	240398
#	254046
#	265314
#
# Disc length: 3782 seconds
#
# Revision: 0
# Processed by: cddbd v1.5.2PL0 Copyright (c) Steve Scherf et al.
# Submitted via: EasyCDDAExtractor 5.0.5.1
#
DISCID=f60ec412
DTITLE=Various Artist - HOTT COUNTRY VOL 118
DYEAR=1900
DGENRE=Country
TTITLE0=George Canyon - One Good Friend
TTITLE1=Lonestar - I'LL DIE TRYIN'
TTITLE2=Rockie Lynne - LIPSTICK
TTITLE3=Aaron Lines - LIGHTS OF MY HOMETOWN
TTITLE4=Jamie O'Neal - I LOVE MY LIFE
TTITLE5=Rodney Crowell - SAY YOU LOVE ME
TTITLE6=Gord Bamford - LIFE IS GOOD
TTITLE7=Trisha Yearwood - TRYING TO LOVE YOU
TTITLE8=Bering Strait - YOU MAKE LOVIN' FUN
TTITLE9=Poverty Plainsmen - SECRET TO MY SUCCESS
TTITLE10=Merle Haggard - AMERICA FIRST
TTITLE11=Sarah Harmer - I AM AGLOW
TTITLE12=Cowboy Troy - IF YOU DON'T WANNA LOVE ME
TTITLE13=Keith Urban - TONIGHT I WANNA CRY
TTITLE14=Brice Long - ANYWHERE BUT HERE
TTITLE15=George Strait - TEXAS
TTITLE16=George Canyon - Santa's On His Way
TTITLE17=Jamie O'Neal - O Holy Night
EXTD=
EXTT0=
EXTT1=
EXTT2=
EXTT3=
EXTT4=
EXTT5=
EXTT6=
EXTT7=
EXTT8=
EXTT9=
EXTT10=
EXTT11=
EXTT12=
EXTT13=
EXTT14=
EXTT15=
EXTT16=
EXTT17=
PLAYORDER=
